<?xml version="1.0" encoding="utf-8"?><svg viewBox="0 0 267 66" xmlns="http://www.w3.org/2000/svg" xmlns:xlink="http://www.w3.org/1999/xlink"><style>:root>svg{display:none}:root>svg:target{display:block}</style><svg fill="none" viewBox="0 0 25 24" id="accord" xmlns="http://www.w3.org/2000/svg"><circle cx="12.895" cy="12" r="12" fill="#DD3824"/><path d="M5.47 11.25a.75.75 0 000 1.5h6.676v6.675a.75.75 0 001.5 0V12.75h6.674a.75.75 0 000-1.5h-6.675V4.575a.75.75 0 00-1.5 0v6.675H5.471z" fill="#fff"/></svg><svg fill="none" viewBox="0 0 54 54" id="address" xmlns="http://www.w3.org/2000/svg"><rect width="54" height="54" rx="16" fill="#0C5E84"/><path d="M27 24a2 2 0 100-4 2 2 0 000 4z" fill="#fff"/><path fill-rule="evenodd" clip-rule="evenodd" d="M27 16a5.972 5.972 0 00-3.337 1.013.996.996 0 00-.582.079l-6.5 3A1 1 0 0016 21v16a1 1 0 001.42.908l6.095-2.814 6.591 2.825a1 1 0 00.813-.011l6.5-3A1 1 0 0038 34V18a1 1 0 00-1.447-.894l-4.233 2.116A6 6 0 0027 16zm0 2a4 4 0 00-4 4c0 .45.223 1.183.682 2.137.442.918 1.041 1.916 1.654 2.85A49.314 49.314 0 0027 29.357a49.314 49.314 0 001.664-2.37c.613-.934 1.212-1.932 1.654-2.85.46-.954.682-1.687.682-2.137a4 4 0 00-4-4zm-.78 13.625L27 31l-.78.625zM27 31l.78.625L27 31zm.78.625a1.002 1.002 0 01-1.56 0l-.005-.006-.012-.014-.044-.056a49.668 49.668 0 01-.742-.969 51.442 51.442 0 01-1.753-2.496c-.637-.97-1.288-2.05-1.784-3.079-.478-.992-.88-2.074-.88-3.005 0-.658.106-1.291.302-1.884L18 21.64v13.797l5.08-2.345a1 1 0 01.814-.011l6.59 2.825L36 33.36V19.618l-3.06 1.53c.04.278.06.563.06.852 0 .93-.402 2.013-.88 3.005-.496 1.029-1.147 2.108-1.784 3.08a51.442 51.442 0 01-2.495 3.464l-.044.056-.012.014-.004.006z" fill="#fff"/></svg><svg fill="none" viewBox="0 0 7 6" id="arrow" xmlns="http://www.w3.org/2000/svg"><path d="M3.54 6l-3-6h6l-3 6z" fill="#0C5E84"/></svg><svg viewBox="0 0 12 20" id="arrow-down" xmlns="http://www.w3.org/2000/svg"><path d="M5.175 16.896l-2.993-2.993a.91.91 0 00-1.286 1.285l4.546 4.546a.909.909 0 001.285 0l4.546-4.546a.91.91 0 00-1.286-1.285l-2.993 2.993V.91a.91.91 0 00-1.819 0v15.987z"/></svg><svg viewBox="0 0 17 10" id="arrow-left" xmlns="http://www.w3.org/2000/svg"><path d="M3.022 4.273l2.395-2.395A.727.727 0 104.388.85L.752 4.486a.727.727 0 000 1.028l3.636 3.637a.727.727 0 001.029-1.029L3.022 5.727h12.79a.727.727 0 100-1.454H3.022z"/></svg><svg viewBox="0 0 21 12" id="arrow-right" xmlns="http://www.w3.org/2000/svg"><path d="M17.435 5.091l-2.993-2.994A.91.91 0 0115.727.812l4.546 4.545a.91.91 0 010 1.286l-4.546 4.545a.91.91 0 01-1.285-1.285l2.993-2.994H1.448a.91.91 0 010-1.818h15.987z"/></svg><svg fill="none" viewBox="0 0 25 10" id="arrow-right-block" xmlns="http://www.w3.org/2000/svg"><path d="M22.227 4.272l-2.395-2.394A.727.727 0 0120.861.849l3.636 3.636a.727.727 0 010 1.029L20.861 9.15a.727.727 0 11-1.029-1.028l2.395-2.395H1.094a.727.727 0 010-1.455h21.133z" fill="#DD3824"/></svg><svg fill="none" viewBox="0 0 36 12" id="arrow-right-cat" xmlns="http://www.w3.org/2000/svg"><path d="M32.634 5.09L29.64 2.097A.91.91 0 0130.926.81l4.545 4.546a.909.909 0 010 1.285l-4.545 4.546a.909.909 0 11-1.286-1.286l2.994-2.993H1.249a.91.91 0 010-1.819h31.385z" fill="#0C5E84"/></svg><svg fill="none" viewBox="0 0 21 22" id="attach" xmlns="http://www.w3.org/2000/svg"><path d="M2.277 11.641L12.585 1.333a4.551 4.551 0 016.474 6.398L8.714 18.077a3.034 3.034 0 01-4.291-4.29l5.72-5.722a1.011 1.011 0 011.431 1.43l-5.721 5.722a1.011 1.011 0 001.43 1.43L17.591 6.339a2.528 2.528 0 00-3.576-3.576L3.708 13.071a4.045 4.045 0 005.72 5.721l5.722-5.72a1.011 1.011 0 111.43 1.43l-5.721 5.72a6.068 6.068 0 01-8.582-8.58z" fill="#1E1E1E"/></svg><svg viewBox="0 0 19 22" id="bin" xmlns="http://www.w3.org/2000/svg"><path fill-rule="evenodd" clip-rule="evenodd" d="M7.54 0a1 1 0 00-1 1v2h-5a1 1 0 000 2h16a1 1 0 000-2h-5V1a1 1 0 00-1-1h-4zm3 3h-2V2h2v1z"/><path d="M7.54 10a1 1 0 011 1v6a1 1 0 11-2 0v-6a1 1 0 011-1zM12.54 11a1 1 0 00-2 0v6a1 1 0 102 0v-6z"/><path fill-rule="evenodd" clip-rule="evenodd" d="M1.54 6a1 1 0 00-.99 1.142l1.754 12.282A3 3 0 005.274 22h8.53a3 3 0 002.97-2.576L18.53 7.142A1 1 0 0017.539 6h-16zm2.744 13.142L2.692 8h13.694l-1.592 11.142a1 1 0 01-.99.858h-8.53a1 1 0 01-.99-.858z"/></svg><svg viewBox="0 0 22 22" id="bin-2" xmlns="http://www.w3.org/2000/svg"><path d="M19 5a1 1 0 11-2 0 1 1 0 012 0zM14 6a1 1 0 100-2 1 1 0 000 2zM8 11a1 1 0 100 2h6a1 1 0 100-2H8zM8 15a1 1 0 100 2h4a1 1 0 100-2H8z"/><path fill-rule="evenodd" clip-rule="evenodd" d="M0 3a3 3 0 013-3h16a3 3 0 013 3v7a3 3 0 01-3 3v6a3 3 0 01-3 3H6a3 3 0 01-3-3v-6a3 3 0 01-3-3V3zm20 7a1 1 0 01-1 1V8a1 1 0 00-1-1H4a1 1 0 00-1 1v3a1 1 0 01-1-1V3a1 1 0 011-1h16a1 1 0 011 1v7zM5 9v10a1 1 0 001 1h10a1 1 0 001-1V9H5z"/></svg><svg fill="none" viewBox="0 0 29 28" id="bookmark" xmlns="http://www.w3.org/2000/svg"><path d="M8.694 1.167a1.167 1.167 0 000 2.333h11.667a3.5 3.5 0 013.5 3.5v11.666a1.167 1.167 0 102.333 0V7a5.833 5.833 0 00-5.833-5.833H8.694z" fill="#272B2C"/><path fill-rule="evenodd" clip-rule="evenodd" d="M6.36 5.833a3.5 3.5 0 00-3.5 3.5v16.333a1.167 1.167 0 001.87.933l7.464-5.621 7.465 5.62a1.167 1.167 0 001.868-.931V9.332a3.5 3.5 0 00-3.5-3.5H6.361zm-1.166 3.5c0-.644.522-1.167 1.167-1.167h11.666c.645 0 1.167.523 1.167 1.167v13.995l-6.298-4.742a1.167 1.167 0 00-1.404 0l-6.298 4.742V9.333z" fill="#272B2C"/></svg><svg fill="none" viewBox="0 0 27 26" id="cart" xmlns="http://www.w3.org/2000/svg"><path fill-rule="evenodd" clip-rule="evenodd" d="M.694 1.333C.694.69 1.216.167 1.861.167h3.5c.45 0 .86.258 1.053.665l1.35 2.835h17.43a1.167 1.167 0 011.139 1.42L24 15.586c-.11.495-.528.862-1.034.908l-12.833 1.167a1.167 1.167 0 01-1.236-.872L5.926 5.233 4.624 2.5H1.861A1.167 1.167 0 01.694 1.333zM8.532 6l2.378 9.248 10.997-1L23.74 6H8.532zM8.86 25.833a3.5 3.5 0 100-7 3.5 3.5 0 000 7zm0-2.333a1.167 1.167 0 100-2.334 1.167 1.167 0 000 2.334zM25.194 22.333a3.5 3.5 0 11-7 0 3.5 3.5 0 017 0zm-2.333 0a1.167 1.167 0 11-2.334 0 1.167 1.167 0 012.334 0z" fill="#272B2C"/></svg><svg fill="none" viewBox="0 0 36 36" id="circ-1" xmlns="http://www.w3.org/2000/svg"><rect width="36" height="36" rx="8" fill="#272B2C"/><path fill-rule="evenodd" clip-rule="evenodd" d="M24.364 15.273a3.636 3.636 0 10-3.557-2.875l-6.428 3.214a3.636 3.636 0 10.196 4.53l6.244 3.406a3.636 3.636 0 10.838-1.614l-6.41-3.496a3.677 3.677 0 00-.054-1.2l6.428-3.214a3.628 3.628 0 002.743 1.249zm0-1.819a1.818 1.818 0 100-3.636 1.818 1.818 0 000 3.636zm-12.728 6.364a1.818 1.818 0 100-3.636 1.818 1.818 0 000 3.636zm14.546 4.546a1.818 1.818 0 11-3.637 0 1.818 1.818 0 013.637 0z" fill="#fff"/></svg><svg fill="none" viewBox="0 0 47 47" id="classmates" xmlns="http://www.w3.org/2000/svg"><circle cx="23.539" cy="23.252" r="22.5" stroke="#fff"/><path d="M18.696 23.414c-.435.853.058 1.261 1.183 1.958.956.59 2.277.807 3.126.893l-.711.684c-1.008.96-1.964 1.89-2.633 2.533-.973.933.594 2.43 1.566 1.517l2.633-2.54c1.008.97 1.974 1.9 2.633 2.543.973.917 2.539-.567 1.576-1.516l-2.633-2.533-.72-.684c.859-.087 2.16-.315 3.105-.893l-.001-.001c1.125-.7 1.618-1.108 1.19-1.961-.259-.485-.956-.89-1.884-.19 0 0-1.253.96-3.273.96-2.022 0-3.274-.96-3.274-.96-.928-.704-1.628-.295-1.883.19z" fill="#fff"/><path d="M23.85 22.89c2.464 0 4.476-1.925 4.476-4.295 0-2.38-2.012-4.305-4.475-4.305-2.464 0-4.476 1.925-4.476 4.305 0 2.37 2.012 4.295 4.476 4.295zm0-6.42c1.211 0 2.198.95 2.198 2.125 0 1.165-.987 2.114-2.197 2.114s-2.198-.95-2.198-2.114c0-1.175.986-2.124 2.198-2.124z" fill="#fff"/></svg><svg fill="none" viewBox="0 0 19 18" id="click" xmlns="http://www.w3.org/2000/svg"><path d="M14.194 6.905a.75.75 0 10-1.06-1.06l-5.095 5.094-2.47-2.47A.75.75 0 004.51 9.53l3 3a.75.75 0 001.06 0l5.625-5.625z" fill="#21A038"/><path fill-rule="evenodd" clip-rule="evenodd" d="M18.54 9a9 9 0 11-18 0 9 9 0 0118 0zm-1.5 0A7.5 7.5 0 112.038 9a7.5 7.5 0 0115 0z" fill="#21A038"/></svg><svg fill="none" viewBox="0 0 22 22" id="close-filter" xmlns="http://www.w3.org/2000/svg"><path d="M2.347.402A1.375 1.375 0 10.403 2.346L9.056 11 .403 19.652a1.375 1.375 0 101.944 1.944L11 12.944l8.653 8.652a1.375 1.375 0 001.944-1.944l-8.652-8.653 8.652-8.652A1.375 1.375 0 0019.653.402L11 9.055 2.347.402z" fill="#0C5E84"/></svg><svg fill="none" viewBox="0 0 16 16" id="delete" xmlns="http://www.w3.org/2000/svg"><path d="M1.707.293A1 1 0 00.293 1.707L6.586 8 .293 14.293a1 1 0 001.414 1.414L8 9.414l6.293 6.293a1 1 0 001.414-1.414L9.414 8l6.293-6.293A1 1 0 0014.293.293L8 6.586 1.707.293z" fill="#DD3824"/></svg><svg viewBox="0 0 23 22" id="delivery-1" xmlns="http://www.w3.org/2000/svg"><path fill-rule="evenodd" clip-rule="evenodd" d="M11.942.072a1 1 0 00-.743 0l-10 4A1 1 0 00.57 5v11.5a1 1 0 00.59.912l10 4.5a1 1 0 00.82 0l10-4.5a1 1 0 00.59-.912V5a1 1 0 00-.628-.928l-10-4zM10.57 19.453l-8-3.6V6.477l8 3.2v9.776zm10-3.6l-8 3.6V9.677l8-3.2v9.376zm-9-7.93L18.878 5 11.57 2.077 4.263 5l7.307 2.923z"/></svg><svg viewBox="0 0 25 18" id="delivery-2" xmlns="http://www.w3.org/2000/svg"><path fill-rule="evenodd" clip-rule="evenodd" d="M.5 3a3 3 0 013-3h10a3 3 0 013 3v1h3.571a1 1 0 01.738.325l3.429 3.75a1 1 0 01.262.675V15a1 1 0 01-1 1h-2.17a3.001 3.001 0 01-5.664-.014c-.054.01-.11.014-.166.014H9.33a3.001 3.001 0 01-5.66 0H1.5a1 1 0 01-1-1V3zm3.17 11a3.001 3.001 0 015.66 0h5.17V3a1 1 0 00-1-1h-10a1 1 0 00-1 1v11h1.17zm12.83-1.236V6h3.13l2.87 3.138V14h-1.17a3.001 3.001 0 00-4.83-1.236zM6.5 14a1 1 0 100 2 1 1 0 000-2zm12 0a1 1 0 100 2 1 1 0 000-2z"/></svg><svg fill="none" viewBox="0 0 47 47" id="facebook" xmlns="http://www.w3.org/2000/svg"><circle cx="23.539" cy="23.252" r="22.5" stroke="#fff"/><path d="M26.237 17.575h1.552v-2.703a20.022 20.022 0 00-2.261-.12c-4.91 0-3.574 5.56-3.77 6.375h-2.47v3.022h2.47v7.603h3.027v-7.603h2.37l.375-3.021h-2.746c.134-2-.539-3.553 1.453-3.553z" fill="#fff"/></svg><svg fill="none" viewBox="0 0 61 60" id="failed" xmlns="http://www.w3.org/2000/svg"><circle cx="30.5" cy="30" r="30" fill="#DD3824"/><path fill="#fff" d="M13.5 26h34v8h-34z"/></svg><svg fill="none" viewBox="0 0 11 18" id="filter-arrow" xmlns="http://www.w3.org/2000/svg"><path d="M4.812 2.793L2.118 5.488A.818.818 0 11.96 4.33L5.05.24a.818.818 0 011.158 0l4.09 4.09a.818.818 0 01-1.157 1.158L6.448 2.793v14.389a.818.818 0 11-1.636 0V2.793z" fill="#0C5E84"/></svg><svg fill="none" viewBox="0 0 19 23" id="geo" xmlns="http://www.w3.org/2000/svg"><path fill-rule="evenodd" clip-rule="evenodd" d="M9.706 5.752a3.667 3.667 0 100 7.333 3.667 3.667 0 000-7.333zM7.872 9.419a1.833 1.833 0 113.667 0 1.833 1.833 0 01-3.667 0z" fill="#fff"/><path fill-rule="evenodd" clip-rule="evenodd" d="M9.706.252C4.663.252.539 4.255.539 9.235c0 3.362 2.013 6.6 4.002 8.916a23.298 23.298 0 002.912 2.857c.428.347.823.632 1.155.836.165.102.33.192.485.26.126.056.355.148.613.148s.487-.092.613-.147c.155-.069.32-.16.485-.26.332-.205.726-.49 1.155-.837a23.297 23.297 0 002.911-2.857c1.99-2.317 4.002-5.554 4.002-8.916 0-4.98-4.123-8.983-9.166-8.983zM2.372 9.235c0-3.93 3.264-7.15 7.334-7.15s7.333 3.22 7.333 7.15c0 2.69-1.653 5.501-3.56 7.722-.938 1.092-1.9 1.999-2.675 2.626-.388.315-.716.55-.96.7a3.555 3.555 0 01-.138.08 3.57 3.57 0 01-.138-.08 9.595 9.595 0 01-.96-.7 21.461 21.461 0 01-2.676-2.626c-1.906-2.22-3.56-5.033-3.56-7.722z" fill="#fff"/></svg><svg viewBox="0 0 21 22" id="goods-1" xmlns="http://www.w3.org/2000/svg"><path d="M5.54 0a1 1 0 000 2h10a3 3 0 013 3v10a1 1 0 102 0V5a5 5 0 00-5-5h-10z"/><path fill-rule="evenodd" clip-rule="evenodd" d="M3.54 4a3 3 0 00-3 3v14a1 1 0 001.6.799l6.4-4.818 6.398 4.818A1 1 0 0016.539 21V7a3 3 0 00-3-3h-10zm-1 3a1 1 0 011-1h10a1 1 0 011 1v11.995l-5.4-4.065a1 1 0 00-1.202 0l-5.399 4.065V7z"/></svg><svg viewBox="0 0 23 20" id="goods-2" xmlns="http://www.w3.org/2000/svg"><path fill-rule="evenodd" clip-rule="evenodd" d="M5.666 2.043C4.028 2.29 2.54 3.667 2.54 6.229c0 1.245.52 2.61 1.407 4.011.881 1.391 2.072 2.738 3.291 3.926a39.453 39.453 0 004.302 3.61 39.45 39.45 0 004.302-3.61c1.219-1.188 2.41-2.535 3.29-3.926.888-1.401 1.408-2.766 1.408-4.011 0-2.562-1.489-3.938-3.127-4.186-1.664-.253-3.763.623-4.964 3.235a1 1 0 01-1.817 0C9.429 2.666 7.33 1.79 5.666 2.043zM11.54 19l.558.83a1 1 0 01-1.116 0l.558-.83zm0-16.115C9.924.675 7.561-.268 5.366.065 2.686.472.54 2.745.54 6.23c0 1.778.73 3.52 1.718 5.081.994 1.57 2.303 3.039 3.584 4.288a41.454 41.454 0 005.106 4.21l.024.016.007.004.003.002.558-.83.558.83.003-.002.007-.004.024-.017.09-.061c.077-.054.189-.132.33-.233a41.454 41.454 0 004.686-3.915c1.281-1.25 2.59-2.718 3.585-4.288.987-1.56 1.717-3.303 1.717-5.081 0-3.484-2.148-5.757-4.827-6.164-2.195-.333-4.558.61-6.173 2.82z"/></svg><svg viewBox="0 0 23 18" id="goods-3" xmlns="http://www.w3.org/2000/svg"><path fill-rule="evenodd" clip-rule="evenodd" d="M16.122 9a4.583 4.583 0 11-9.166 0 4.583 4.583 0 019.166 0zM14.29 9a2.75 2.75 0 11-5.5 0 2.75 2.75 0 015.5 0z"/><path fill-rule="evenodd" clip-rule="evenodd" d="M22.54 9c0 2.292-4.926 8.25-11 8.25-6.076 0-11-5.5-11-8.25S5.463.75 11.54.75c6.074 0 11 5.958 11 8.25zm-1.835-.001v.002c-.002.018-.016.132-.101.355-.095.246-.25.559-.48.92-.457.725-1.148 1.556-2.027 2.34-1.781 1.59-4.115 2.8-6.558 2.8-2.487 0-4.828-1.134-6.58-2.647-.869-.75-1.547-1.556-1.995-2.282C2.49 9.719 2.372 9.203 2.372 9c0-.203.119-.72.592-1.487.448-.726 1.126-1.531 1.995-2.282 1.752-1.513 4.093-2.648 6.58-2.648 2.443 0 4.777 1.212 6.558 2.8.879.785 1.57 1.616 2.028 2.34.229.362.384.675.479.92.085.224.1.338.101.356z"/></svg><svg fill="none" viewBox="0 0 29 28" id="heart" xmlns="http://www.w3.org/2000/svg"><path fill-rule="evenodd" clip-rule="evenodd" d="M7.676 4.716C5.764 5.006 4.027 6.61 4.027 9.6c0 1.452.607 3.045 1.642 4.68 1.028 1.622 2.418 3.193 3.84 4.58a46.015 46.015 0 005.018 4.212 46.034 46.034 0 005.019-4.213c1.422-1.386 2.812-2.957 3.84-4.58 1.035-1.634 1.641-3.227 1.641-4.68 0-2.988-1.737-4.593-3.648-4.883-1.941-.295-4.39.727-5.792 3.775a1.167 1.167 0 01-2.12 0c-1.401-3.048-3.85-4.07-5.791-3.775zM14.527 24.5l.652.968a1.167 1.167 0 01-1.303 0l.651-.968zm0-18.801c-1.884-2.58-4.641-3.679-7.201-3.29-3.127.474-5.632 3.126-5.632 7.19 0 2.075.851 4.108 2.004 5.929 1.16 1.832 2.687 3.545 4.182 5.002a48.372 48.372 0 005.852 4.839l.104.072.029.019.008.005.003.003.651-.968.652.968.003-.003.008-.005.028-.02a18.114 18.114 0 00.49-.343 48.378 48.378 0 005.467-4.567c1.495-1.457 3.022-3.17 4.182-5.002 1.152-1.82 2.004-3.854 2.004-5.928 0-4.065-2.506-6.717-5.632-7.191-2.56-.389-5.317.71-7.202 3.29z" fill="#272B2C"/></svg><svg fill="none" viewBox="0 0 47 47" id="insta" xmlns="http://www.w3.org/2000/svg"><circle cx="23.539" cy="23.252" r="22.5" stroke="#fff"/><path d="M23.54 14.76c-3.482 0-6.789-.31-8.051 2.929-.522 1.337-.446 3.075-.446 5.562 0 2.182-.07 4.234.446 5.56 1.26 3.24 4.592 2.93 8.048 2.93 3.334 0 6.772.347 8.05-2.93.522-1.35.446-3.061.446-5.56 0-3.317.183-5.459-1.427-7.066-1.63-1.629-3.835-1.425-7.07-1.425h.003zm-.762 1.53c7.262-.011 8.187-.818 7.676 10.389-.18 3.963-3.201 3.529-6.914 3.529-6.77 0-6.964-.194-6.964-6.961 0-6.846.537-6.953 6.202-6.959v.002zm5.297 1.41a1.019 1.019 0 10-.001 2.037 1.019 1.019 0 000-2.037zm-4.536 1.19a4.361 4.361 0 100 8.72 4.36 4.36 0 100-8.72zm0 1.53c3.744 0 3.75 5.661 0 5.661-3.743 0-3.749-5.66 0-5.66z" fill="#fff"/></svg><svg fill="none" viewBox="0 0 42 42" id="label" xmlns="http://www.w3.org/2000/svg"><path fill-rule="evenodd" clip-rule="evenodd" d="M36.273 0A5.727 5.727 0 0142 5.727v28.637a1.909 1.909 0 01-3.259 1.35l-7.077-7.078h-1.119a5.727 5.727 0 01-5.727 5.728H10.336L3.26 41.44A1.91 1.91 0 010 40.09V11.454a5.727 5.727 0 015.727-5.727h5.727A5.727 5.727 0 0117.182 0h19.09zm-21 5.727h9.545a5.727 5.727 0 015.727 5.727v13.364h1.91c.506 0 .991.201 1.35.56l4.377 4.377V5.727a1.91 1.91 0 00-1.91-1.909h-19.09a1.91 1.91 0 00-1.91 1.91zM3.818 11.454a1.91 1.91 0 011.91-1.909h19.09a1.91 1.91 0 011.91 1.91v17.181a1.91 1.91 0 01-1.91 1.91H9.545a1.91 1.91 0 00-1.35.559l-4.377 4.377V11.455z" fill="#fff"/></svg><svg fill="none" viewBox="0 0 54 54" id="mail" xmlns="http://www.w3.org/2000/svg"><rect width="54" height="54" rx="16" fill="#0C5E84"/><path fill-rule="evenodd" clip-rule="evenodd" d="M16 21a3 3 0 013-3h16a3 3 0 013 3v12a3 3 0 01-3 3H19a3 3 0 01-3-3V21zm3-1a1 1 0 00-1 1v1.434l8.485 5.091a1 1 0 001.03 0L36 22.434V21a1 1 0 00-1-1H19zm17 4.766l-7.456 4.474a3 3 0 01-3.088 0L18 24.766V33a1 1 0 001 1h16a1 1 0 001-1v-8.234z" fill="#fff"/></svg><svg viewBox="0 0 19 22" id="mark" xmlns="http://www.w3.org/2000/svg"><path fill-rule="evenodd" clip-rule="evenodd" d="M9.706 5.5a3.667 3.667 0 100 7.333 3.667 3.667 0 000-7.333zM7.872 9.167a1.833 1.833 0 113.667 0 1.833 1.833 0 01-3.667 0z"/><path fill-rule="evenodd" clip-rule="evenodd" d="M9.706 0C4.663 0 .539 4.003.539 8.983c0 3.361 2.013 6.6 4.002 8.916a23.283 23.283 0 002.912 2.857c.428.347.823.632 1.155.836a4.1 4.1 0 00.485.261c.126.055.355.147.613.147s.487-.092.613-.147c.155-.068.32-.16.485-.26.332-.205.726-.49 1.155-.837a23.283 23.283 0 002.911-2.857c1.99-2.317 4.002-5.555 4.002-8.916C18.872 4.003 14.75 0 9.706 0zM2.372 8.983c0-3.93 3.264-7.15 7.334-7.15s7.333 3.22 7.333 7.15c0 2.69-1.653 5.501-3.56 7.722-.938 1.092-1.9 1.999-2.675 2.626a9.588 9.588 0 01-.96.7 3.43 3.43 0 01-.138.08 3.444 3.444 0 01-.138-.08 9.591 9.591 0 01-.96-.7 21.463 21.463 0 01-2.676-2.626c-1.906-2.22-3.56-5.033-3.56-7.722z"/></svg><svg viewBox="0 0 32 31" id="menu" xmlns="http://www.w3.org/2000/svg"><path d="M2.621 1h7.75c.518 0 .938.42.938.938v7.75c0 .517-.42.937-.938.937h-7.75a.937.937 0 01-.937-.938v-7.75c0-.517.42-.937.937-.937zM21.996 1h7.75c.518 0 .938.42.938.938v7.75c0 .517-.42.937-.938.937h-7.75a.937.937 0 01-.937-.938v-7.75c0-.517.42-.937.937-.937zM2.621 20.375h7.75c.518 0 .938.42.938.938v7.75c0 .517-.42.937-.938.937h-7.75a.937.937 0 01-.937-.938v-7.75c0-.517.42-.937.937-.937zM21.996 20.375h7.75c.518 0 .938.42.938.938v7.75c0 .517-.42.937-.938.937h-7.75a.937.937 0 01-.937-.938v-7.75c0-.517.42-.937.937-.937z"/></svg><svg viewBox="0 0 13 2" id="minus" xmlns="http://www.w3.org/2000/svg"><path fill-rule="evenodd" clip-rule="evenodd" d="M.54 1a.75.75 0 01.75-.75h10.5a.75.75 0 010 1.5H1.29A.75.75 0 01.54 1z"/></svg><svg fill="none" viewBox="0 0 54 54" id="number" xmlns="http://www.w3.org/2000/svg"><rect width="54" height="54" rx="16" fill="#0C5E84"/><path fill-rule="evenodd" clip-rule="evenodd" d="M17.687 17.358c1.212-1.697 3.649-1.85 5.009-.196.114.14.23.28.346.42 1.01 1.23 2.02 2.46 2.408 2.848.375.375.447.958.174 1.414l-2.127 3.544c.137.223.321.489.558.792.42.542.96 1.143 1.56 1.743 1.01 1.01 2.142 1.965 3.116 2.61l3.489-2.093a1.157 1.157 0 011.343.109l3.366 2.848a3.148 3.148 0 01-.203 4.966c-2.576 1.84-6.038 2.277-8.874.546-1.955-1.193-4.35-2.878-6.494-5.021a29.019 29.019 0 01-4.372-5.635c-1.726-2.894-1.123-6.341.7-8.895zm3.22 1.274c-.357-.435-.977-.432-1.337.071-1.43 2.004-1.738 4.45-.596 6.365a26.706 26.706 0 004.02 5.183c1.973 1.972 4.207 3.548 6.064 4.682 1.914 1.168 4.37.94 6.322-.454a.834.834 0 00.054-1.315L32.7 30.851l-3.381 2.03c-.358.214-.804.22-1.167.013-1.33-.755-2.883-2.043-4.174-3.334a21.643 21.643 0 01-1.75-1.958c-.479-.615-.902-1.257-1.13-1.841a1.157 1.157 0 01.086-1.016l2.014-3.357c-.54-.625-1.258-1.5-1.922-2.307l-.368-.449z" fill="#fff"/></svg><svg viewBox="0 0 36 36" id="ok-circ" xmlns="http://www.w3.org/2000/svg"><rect width="36" height="36" rx="8"/><path d="M11.935 18.734c-.51 1.004.07 1.484 1.393 2.304 1.125.695 2.679.949 3.677 1.05l-.837.805c-1.185 1.13-2.31 2.223-3.097 2.98-1.145 1.098.698 2.858 1.842 1.784l3.098-2.987c1.186 1.14 2.322 2.234 3.097 2.991 1.145 1.079 2.987-.667 1.855-1.784l-3.097-2.98-.849-.804c1.011-.102 2.542-.371 3.654-1.051l-.001-.001c1.323-.824 1.903-1.303 1.4-2.307-.305-.57-1.125-1.047-2.216-.223 0 0-1.474 1.13-3.852 1.13s-3.851-1.13-3.851-1.13c-1.092-.828-1.915-.347-2.216.223z" fill="#fff"/><path d="M18 18.118c2.898 0 5.265-2.265 5.265-5.053C23.265 10.265 20.898 8 18 8c-2.9 0-5.266 2.265-5.266 5.065 0 2.788 2.367 5.053 5.266 5.053zm0-7.552c1.424 0 2.586 1.117 2.586 2.499 0 1.37-1.162 2.487-2.586 2.487s-2.586-1.117-2.586-2.487c0-1.383 1.161-2.5 2.586-2.5z" fill="#fff"/></svg><svg fill="none" viewBox="0 0 6 10" id="open" xmlns="http://www.w3.org/2000/svg"><path d="M2.818 8.448L1.321 6.951a.455.455 0 10-.642.643L2.95 9.867a.455.455 0 00.643 0l2.273-2.273a.455.455 0 10-.643-.643L3.727 8.448V.455a.455.455 0 10-.909 0v7.993z" fill="#fff"/></svg><svg fill="none" viewBox="0 0 19 24" id="order" xmlns="http://www.w3.org/2000/svg"><path d="M5.54 7.252a1 1 0 100 2h8a1 1 0 000-2h-8zM5.54 11.252a1 1 0 100 2h8a1 1 0 000-2h-8zM5.54 15.252a1 1 0 100 2h4a1 1 0 000-2h-4z" fill="#272B2C"/><path fill-rule="evenodd" clip-rule="evenodd" d="M3.54 3.252h3a3 3 0 116 0h3a3 3 0 013 3v14a3 3 0 01-3 3h-12a3 3 0 01-3-3v-14a3 3 0 013-3zm6-1a1 1 0 00-1 1h2a1 1 0 00-1-1zm-6 3a1 1 0 00-1 1v14a1 1 0 001 1h12a1 1 0 001-1v-14a1 1 0 00-1-1h-12z" fill="#272B2C"/></svg><svg viewBox="0 0 169 20" id="pag" xmlns="http://www.w3.org/2000/svg"><path d="M168.508 2.252c-21.027 0-21.027 16-42.067 16s-21.027-16-42.053-16c-21.027 0-21.04 16-42.067 16-21.026 0-21.04-16-42.067-16"/></svg><svg viewBox="0 0 13 12" id="plus" xmlns="http://www.w3.org/2000/svg"><path d="M7.29.75a.75.75 0 10-1.5 0v4.5h-4.5a.75.75 0 000 1.5h4.5v4.5a.75.75 0 001.5 0v-4.5h4.5a.75.75 0 000-1.5h-4.5V.75z"/></svg><svg fill="none" viewBox="0 0 29 28" id="tel" xmlns="http://www.w3.org/2000/svg"><path fill-rule="evenodd" clip-rule="evenodd" d="M4.377 3.481c1.322-1.851 3.98-2.017 5.464-.213l.377.459c1.102 1.341 2.204 2.682 2.627 3.106.41.41.488 1.045.19 1.542l-2.32 3.866c.149.243.35.534.608.865.46.59 1.047 1.246 1.702 1.9 1.103 1.103 2.337 2.145 3.4 2.848l3.806-2.283a1.263 1.263 0 011.465.119l3.672 3.107a3.434 3.434 0 01-.222 5.417c-2.81 2.007-6.586 2.484-9.68.596-2.133-1.302-4.747-3.14-7.085-5.478a31.66 31.66 0 01-4.769-6.146c-1.883-3.158-1.226-6.918.765-9.705zm3.513 1.39c-.39-.474-1.066-.471-1.459.078-1.56 2.186-1.897 4.853-.65 6.943a29.134 29.134 0 004.386 5.654c2.152 2.152 4.588 3.872 6.614 5.108 2.088 1.275 4.767 1.027 6.897-.495a.91.91 0 00.06-1.434L20.754 18.2l-3.69 2.214c-.39.234-.876.24-1.272.015-1.45-.823-3.145-2.229-4.554-3.638a23.605 23.605 0 01-1.909-2.135c-.522-.671-.984-1.372-1.232-2.009a1.263 1.263 0 01.093-1.108l2.197-3.662c-.59-.682-1.372-1.636-2.096-2.517l-.402-.49z" fill="#272B2C"/></svg><svg fill="none" viewBox="0 0 61 60" id="telegram" xmlns="http://www.w3.org/2000/svg"><path d="M30.54 60c16.568 0 30-13.431 30-30 0-16.569-13.432-30-30-30-16.57 0-30 13.431-30 30 0 16.569 13.43 30 30 30z" fill="#039BE5"/><path d="M27.956 33.18l-.396 5.585c.568 0 .814-.244 1.109-.537l2.662-2.545 5.519 4.04c1.012.565 1.725.268 1.998-.93L42.47 21.82c.322-1.497-.54-2.082-1.526-1.715l-21.29 8.152c-1.454.564-1.432 1.374-.248 1.74l5.443 1.694 12.644-7.912c.595-.393 1.136-.175.69.218l-10.227 9.184z" fill="#fff"/></svg><svg fill="none" viewBox="0 0 61 60" id="tick" xmlns="http://www.w3.org/2000/svg"><circle cx="30.5" cy="30" r="30" fill="#21A038"/><path fill-rule="evenodd" clip-rule="evenodd" d="M47.973 17.927a1.8 1.8 0 010 2.546l-21.6 21.6a1.8 1.8 0 01-2.546 0l-10.8-10.8a1.8 1.8 0 012.546-2.546l9.527 9.527 20.327-20.327a1.8 1.8 0 012.546 0z" fill="#fff"/></svg><svg viewBox="0 0 36 36" id="tl-circ" xmlns="http://www.w3.org/2000/svg"><rect width="36" height="36" rx="8"/><path d="M15.848 20.652l-.331 4.653c.473 0 .678-.203.924-.447l2.22-2.121 4.598 3.367c.843.47 1.437.223 1.665-.776l3.018-14.143.001-.001c.268-1.247-.45-1.734-1.272-1.428L8.929 16.548c-1.211.47-1.193 1.145-.206 1.451l4.536 1.411 10.536-6.593c.495-.328.946-.146.575.182l-8.522 7.653z" fill="#fff"/></svg><svg fill="none" viewBox="0 0 19 24" id="to-order" xmlns="http://www.w3.org/2000/svg"><path d="M5.527 7.04a1 1 0 000 2h8a1 1 0 100-2h-8zM5.527 11.04a1 1 0 100 2h8a1 1 0 000-2h-8zM5.527 15.04a1 1 0 100 2h4a1 1 0 000-2h-4z" fill="#272B2C"/><path fill-rule="evenodd" clip-rule="evenodd" d="M3.527 3.04h3a3 3 0 016 0h3a3 3 0 013 3v14a3 3 0 01-3 3h-12a3 3 0 01-3-3v-14a3 3 0 013-3zm6-1a1 1 0 00-1 1h2a1 1 0 00-1-1zm-6 3a1 1 0 00-1 1v14a1 1 0 001 1h12a1 1 0 001-1v-14a1 1 0 00-1-1h-12z" fill="#272B2C"/></svg><svg fill="none" viewBox="0 0 61 60" id="to-top" xmlns="http://www.w3.org/2000/svg"><path d="M30.54 60c16.568 0 30-13.431 30-30 0-16.569-13.432-30-30-30-16.57 0-30 13.431-30 30 0 16.569 13.43 30 30 30z" fill="#DD3824"/><path d="M29.812 24.483l-2.395 2.395a.727.727 0 11-1.028-1.029l3.636-3.636a.727.727 0 011.029 0l3.636 3.636a.727.727 0 01-1.029 1.029l-2.394-2.395v12.79a.727.727 0 01-1.455 0v-12.79z" fill="#fff"/></svg><svg fill="none" viewBox="0 0 17 16" id="tooltip" xmlns="http://www.w3.org/2000/svg"><path d="M9.5 11a1 1 0 11-2 0 1 1 0 012 0zM8.21 4a.667.667 0 00-.666.708l.27 4.313a.333.333 0 00.332.312h.707a.333.333 0 00.333-.312l.27-4.313A.667.667 0 008.79 4h-.58z" fill="#272B2C"/><path fill-rule="evenodd" clip-rule="evenodd" d="M.5 8a8 8 0 1116 0 8 8 0 01-16 0zm8-6.667a6.667 6.667 0 100 13.334 6.667 6.667 0 000-13.334z" fill="#272B2C"/></svg><svg fill="none" viewBox="0 0 61 61" id="trust-1" xmlns="http://www.w3.org/2000/svg"><circle cx="30.539" cy="30.252" r="30" fill="#DD3824"/><path d="M26.54 26.252a6 6 0 100-12 6 6 0 000 12zM14.54 46.252v-6a8 8 0 018-8h2M46.54 36.252l-4 4 2 6-6-4-6 4 2-6-4-4h6l2-6 2 6h6z" stroke="#fff" stroke-width="2" stroke-linecap="round" stroke-linejoin="round"/></svg><svg fill="none" viewBox="0 0 61 61" id="trust-2" xmlns="http://www.w3.org/2000/svg"><circle cx="30.539" cy="30.252" r="30" fill="#DD3824"/><path d="M41.49 36.172l2.88 2.862-5.031 5.031-2.88-2.88c-.753.406-1.545.734-2.364.978v4.089h-7.111v-4.071a12.505 12.505 0 01-2.365-.978l-2.88 2.88-5.031-5.031 2.88-2.862a12.496 12.496 0 01-.978-2.365h-4.07v-7.11h4.07c.244-.82.572-1.613.978-2.365l-2.88-2.88 5.031-5.031 2.862 2.88a12.506 12.506 0 012.365-.978v-4.089h7.11v4.071c.82.244 1.613.572 2.365.978v0l2.863-2.88 5.03 5.03-2.88 2.881c.407.753.734 1.545.978 2.364h4.107v7.111h-4.071c-.244.82-.572 1.612-.978 2.365v0z" stroke="#fff" stroke-width="2" stroke-linecap="round" stroke-linejoin="round"/><path d="M24.54 33.252l3-3-.75-3.75 2.25-2.25h5.25l-2.626 2.625a1.588 1.588 0 000 2.25v0a1.59 1.59 0 002.25 0l2.625-2.625v5.25l-2.25 2.25-3.75-.75-3 3-3-3z" stroke="#fff" stroke-width="2" stroke-linecap="round" stroke-linejoin="round"/></svg><svg fill="none" viewBox="0 0 267 40" id="trust-waves" xmlns="http://www.w3.org/2000/svg"><path d="M266.539 2.433c-22.175 0-22.175 16.863-44.336 16.863-22.161 0-22.161-16.863-44.335-16.863-22.175 0-22.161 16.863-44.336 16.863-22.175 0-22.161-16.863-44.336-16.863" stroke="#0C5E84" stroke-width="3" stroke-miterlimit="10"/><path d="M177.867 12.762c-22.161 0-22.161 16.863-44.336 16.863-22.174 0-22.16-16.863-44.321-16.863-22.161 0-22.175 16.863-44.336 16.863-22.16 0-22.175-16.863-44.336-16.863" stroke="#DD3824" stroke-width="3" stroke-miterlimit="10"/><path d="M266.539 21.208c-22.175 0-22.175 16.863-44.336 16.863-22.161 0-22.161-16.863-44.335-16.863-22.175 0-22.161 16.863-44.336 16.863-22.175 0-22.161-16.863-44.336-16.863" stroke="#0C5E84" stroke-width="3" stroke-miterlimit="10"/></svg><svg fill="none" viewBox="0 0 47 47" id="twitter" xmlns="http://www.w3.org/2000/svg"><circle cx="23.539" cy="23.252" r="22.5" stroke="#fff"/><path d="M30.868 18.936c0-.178-.006-.35-.014-.521a8.059 8.059 0 002.023-2.096 8.432 8.432 0 01-2.326.637 4.016 4.016 0 001.776-2.231 8.076 8.076 0 01-2.56.977 4.036 4.036 0 00-6.983 2.76c0 .32.027.628.093.92a11.43 11.43 0 01-8.321-4.223 4.071 4.071 0 00-.553 2.041c0 1.398.72 2.637 1.793 3.355a3.99 3.99 0 01-1.824-.497v.044a4.056 4.056 0 003.235 3.967c-.617.17-1.377.163-1.823.064.523 1.599 2.008 2.775 3.772 2.813a8.116 8.116 0 01-5.006 1.722c-.33 0-.648-.015-.965-.055a11.37 11.37 0 006.193 1.811c7.429 0 11.49-6.154 11.49-11.488z" fill="#fff"/></svg><svg viewBox="0 0 29 28" id="user" xmlns="http://www.w3.org/2000/svg"><path fill-rule="evenodd" clip-rule="evenodd" d="M21.527 8.166a7 7 0 11-14 0 7 7 0 0114 0zm-2.333 0a4.667 4.667 0 11-9.333 0 4.667 4.667 0 019.333 0zM14.527 16.333c-3.424 0-5.893.71-7.664 1.776-1.778 1.069-2.777 2.45-3.328 3.659a2.594 2.594 0 00.364 2.796c.589.704 1.504 1.102 2.462 1.102h16.333c.957 0 1.873-.398 2.462-1.102.617-.74.829-1.778.364-2.796-.551-1.209-1.55-2.59-3.328-3.66-1.771-1.064-4.24-1.775-7.665-1.775zm-8.87 6.404c.383-.84 1.086-1.834 2.409-2.629 1.329-.8 3.358-1.442 6.461-1.442 3.104 0 5.133.643 6.462 1.442 1.322.795 2.026 1.79 2.408 2.628.046.1.044.16.04.19a.291.291 0 01-.072.142c-.105.126-.34.265-.671.265H6.361c-.332 0-.566-.14-.671-.265a.291.291 0 01-.071-.143.33.33 0 01.038-.189z"/></svg><svg viewBox="0 0 36 36" id="vb-circ" xmlns="http://www.w3.org/2000/svg"><rect width="36" height="36" rx="8"/><path d="M25.1 10.874C23.2 9.037 20.7 8 18.037 8c-7.641 0-12.44 8.28-8.624 14.865L8 28l5.28-1.377c2.3 1.243 4.183 1.133 4.763 1.206 8.86 0 13.271-10.72 7.044-16.922l.013-.033z" fill="#fff"/><path d="M18.056 26.126h-.018c-2.652 0-4.346-1.257-4.513-1.33l-3.125.813.838-3.037-.2-.313a8.224 8.224 0 01-1.263-4.383c0-7.328 8.955-10.992 14.136-5.813 5.17 5.126 1.54 14.063-5.855 14.063z"/><path d="M22.59 19.922l-.008.063c-.251-.125-1.473-.723-1.7-.805-.511-.19-.367-.03-1.348 1.093-.146.163-.29.175-.538.063-.25-.125-1.053-.388-2.003-1.238-.74-.662-1.236-1.475-1.383-1.725-.244-.422.267-.482.732-1.361.083-.176.04-.313-.021-.437-.063-.125-.56-1.35-.768-1.838-.2-.487-.406-.425-.56-.425-.48-.042-.831-.035-1.14.286-1.345 1.478-1.006 3.004.145 4.625 2.261 2.96 3.466 3.505 5.67 4.262.595.189 1.137.162 1.566.1.479-.075 1.473-.6 1.68-1.188.213-.587.213-1.075.15-1.187-.061-.113-.225-.175-.475-.288z" fill="#fff"/></svg><svg viewBox="0 0 24 18" id="vehicle" xmlns="http://www.w3.org/2000/svg"><path fill-rule="evenodd" clip-rule="evenodd" d="M0 3a3 3 0 013-3h10a3 3 0 013 3v1h3.571a1 1 0 01.738.325l3.429 3.75A1 1 0 0124 8.75V15a1 1 0 01-1 1h-2.17a3.001 3.001 0 01-5.664-.014c-.054.01-.11.014-.166.014H8.83a3.001 3.001 0 01-5.66 0H1a1 1 0 01-1-1V3zm3.17 11a3.001 3.001 0 015.66 0H14V3a1 1 0 00-1-1H3a1 1 0 00-1 1v11h1.17zM16 12.764V6h3.13L22 9.138V14h-1.17A3.001 3.001 0 0016 12.764zM6 14a1 1 0 100 2 1 1 0 000-2zm12 0a1 1 0 100 2 1 1 0 000-2z"/></svg><svg viewBox="0 0 41 31" id="view" xmlns="http://www.w3.org/2000/svg"><path d="M2.898 1h35.428c.671 0 1.215.544 1.215 1.214v6.643c0 .67-.544 1.214-1.214 1.214H2.897c-.67 0-1.213-.543-1.213-1.214V2.214c0-.67.543-1.214 1.214-1.214zM2.898 20.929h35.428c.671 0 1.215.543 1.215 1.214v6.643c0 .67-.544 1.214-1.214 1.214H2.897c-.67 0-1.213-.544-1.213-1.214v-6.643c0-.67.543-1.214 1.214-1.214z"/></svg><svg fill="none" viewBox="0 0 47 47" id="vk" xmlns="http://www.w3.org/2000/svg"><circle cx="23.539" cy="23.252" r="22.5" stroke="#fff"/><path d="M19.477 16.34c.244-.54.592-.793 1.044-.881a10.705 10.705 0 014.017-.055c.77.132 1.063.518 1.063 1.444 0 1.223-.047 2.447-.047 3.67 0 .584-.01 1.168.075 1.741.113.838.592 1.015 1.11.441.978-1.058 1.59-2.424 2.21-3.78.33-.717.593-1.488.866-2.238.17-.452.414-.672.856-.661 1.298.01 2.596-.022 3.885-.033.884-.011 1.204.43.828 1.355-.386.948-.866 1.852-1.374 2.734-.602 1.036-1.288 2.017-1.928 3.031-.677 1.091-.64 1.488.17 2.458.855 1.036 1.73 2.061 2.549 3.13.282.364.498.85.64 1.312.187.64-.076 1.113-.66 1.146-1.297.078-2.596.133-3.884.1-.706-.022-1.298-.496-1.788-1.091-.489-.596-.94-1.224-1.43-1.808-.329-.397-.667-.948-1.204-.772-.583.188-.733.849-.827 1.466-.066.408-.066.838-.095 1.257-.037.474-.244.837-.658.86-1.806.12-3.575.088-5.22-1.048-1.459-1.047-2.644-2.37-3.65-3.968-1.77-2.81-3.161-5.852-4.366-9.038-.272-.727-.084-1.08.593-1.102 1.091-.033 2.182-.033 3.283-.044.564-.011.913.32 1.157.915.583 1.433 1.167 2.865 1.825 4.254.282.606.687 1.169 1.11 1.654.49.562.95.407 1.11-.353.358-1.665.386-3.362.019-5.037-.113-.496-.423-.75-.809-.904-.141-.055-.292-.088-.47-.155z" fill="#fff"/></svg><svg viewBox="0 0 36 36" id="vk-circ" xmlns="http://www.w3.org/2000/svg"><rect width="36" height="36" rx="8"/><path d="M24.596 18.856c-.323-.408-.23-.59 0-.955.005-.004 2.674-3.692 2.949-4.943l.002-.001c.136-.456 0-.791-.661-.791h-2.187c-.557 0-.813.287-.951.61 0 0-1.113 2.664-2.688 4.392-.509.499-.744.659-1.021.659-.137 0-.35-.16-.35-.616v-4.254c0-.547-.155-.791-.616-.791h-3.439c-.349 0-.556.255-.556.492 0 .519.787.638.869 2.096v3.165c0 .693-.126.82-.405.82-.743 0-2.548-2.675-3.617-5.738-.216-.594-.427-.834-.987-.834H8.75c-.624 0-.75.287-.75.609 0 .568.743 3.394 3.457 7.128 1.808 2.548 4.355 3.93 6.672 3.93 1.392 0 1.562-.308 1.562-.835 0-2.435-.126-2.665.572-2.665.323 0 .88.16 2.18 1.389 1.486 1.458 1.73 2.11 2.562 2.11h2.187c.623 0 .939-.307.757-.912-.416-1.272-3.226-3.89-3.353-4.065z" fill="#fff"/></svg><svg fill="none" viewBox="0 0 67 66" id="vod-1" xmlns="http://www.w3.org/2000/svg"><circle cx="33.539" cy="33" r="33" fill="#0C5E84"/><path d="M41.298 29.509a1.25 1.25 0 10-1.768-1.768l-8.49 8.491-4.117-4.116a1.25 1.25 0 00-1.768 1.768l5 5a1.25 1.25 0 001.768 0l9.375-9.375z" fill="#fff"/><path fill-rule="evenodd" clip-rule="evenodd" d="M48.54 33c0 8.284-6.717 15-15 15-8.285 0-15-6.716-15-15 0-8.284 6.715-15 15-15 8.283 0 15 6.716 15 15zm-2.5 0c0 6.904-5.597 12.5-12.5 12.5-6.904 0-12.5-5.596-12.5-12.5s5.596-12.5 12.5-12.5c6.903 0 12.5 5.596 12.5 12.5z" fill="#fff"/></svg><svg fill="none" viewBox="0 0 67 66" id="vod-2" xmlns="http://www.w3.org/2000/svg"><circle cx="33.539" cy="33" r="33" fill="#0C5E84"/><path d="M27.975 23.8V42h-3.38V26.634h-3.848V23.8h7.228zm17.338 0v2.262L38.241 42h-3.614l6.838-15.34h-7.15v3.094H31.17V23.8h14.144z" fill="#fff"/></svg><svg fill="none" viewBox="0 0 67 66" id="vod-3" xmlns="http://www.w3.org/2000/svg"><circle cx="33.539" cy="33" r="33" fill="#0C5E84"/><path d="M41.38 29.81a1.374 1.374 0 00-1.943-1.942l-7.27 7.27-3.15-3.149a1.374 1.374 0 00-1.942 1.943l4.12 4.12a1.373 1.373 0 001.943 0l8.242-8.241z" fill="#fff"/><path fill-rule="evenodd" clip-rule="evenodd" d="M34.843 18.212a4.12 4.12 0 00-2.606 0l-9.615 3.204a4.12 4.12 0 00-2.817 3.91v10.382c0 4.257 2.788 7.162 5.586 9 2.815 1.848 5.92 2.815 7.2 3.164.625.17 1.273.17 1.898 0 1.28-.35 4.386-1.316 7.2-3.164 2.799-1.838 5.587-4.743 5.587-9V25.326a4.12 4.12 0 00-2.818-3.91l-9.614-3.204zm-1.737 2.606c.282-.094.587-.094.869 0l9.615 3.205c.56.187.939.712.939 1.303v10.382c0 2.898-1.872 5.078-4.347 6.703-2.46 1.615-5.241 2.49-6.416 2.81a.837.837 0 01-.451 0c-1.175-.32-3.957-1.195-6.416-2.81-2.476-1.625-4.347-3.805-4.347-6.703V25.326c0-.591.378-1.116.939-1.303l9.615-3.205z" fill="#fff"/></svg><svg fill="none" viewBox="0 0 67 66" id="vod-4" xmlns="http://www.w3.org/2000/svg"><circle cx="33.539" cy="33" r="33" fill="#0C5E84"/><path d="M35.206 36.275l-10.7 10.7a3.492 3.492 0 01-4.942 0v0a3.492 3.492 0 010-4.941l10.7-10.7h-.058l-1.667-6.667L35.206 18l6.666 1.667-6.666 6.666 5 5 6.666-6.666 1.667 6.667L41.872 38l-6.666-1.666v-.059z" stroke="#fff" stroke-width="2.5" stroke-linecap="round" stroke-linejoin="round"/></svg><svg fill="none" viewBox="0 0 68 22" id="vodotok-mobile" xmlns="http://www.w3.org/2000/svg"><path d="M144.992 1.323c-12.042 0-12.042 9.158-24.076 9.158-12.035 0-12.035-9.158-24.077-9.158-12.042 0-12.034 9.158-24.076 9.158S60.728 1.323 48.686 1.323" stroke="#fff" stroke-width="2" stroke-miterlimit="10"/><path d="M96.84 6.932c-12.035 0-12.035 9.158-24.077 9.158-12.042 0-12.034-9.158-24.068-9.158-12.035 0-12.042 9.158-24.077 9.158-12.034 0-12.042-9.158-24.076-9.158" stroke="#fff" stroke-width="2" stroke-miterlimit="10"/><path d="M144.992 11.519c-12.042 0-12.042 9.157-24.076 9.157-12.035 0-12.035-9.157-24.077-9.157-12.042 0-12.034 9.157-24.076 9.157s-12.035-9.157-24.077-9.157" stroke="#fff" stroke-width="2" stroke-miterlimit="10"/></svg><svg fill="none" viewBox="0 0 267 40" id="vodotok-waves" xmlns="http://www.w3.org/2000/svg"><path d="M266.539 2.484c-22.175 0-22.175 16.863-44.336 16.863-22.161 0-22.161-16.863-44.335-16.863-22.175 0-22.161 16.863-44.336 16.863-22.175 0-22.161-16.863-44.336-16.863" stroke="#fff" stroke-width="3" stroke-miterlimit="10"/><path d="M177.867 12.813c-22.161 0-22.161 16.863-44.336 16.863-22.174 0-22.16-16.863-44.321-16.863-22.161 0-22.175 16.863-44.336 16.863-22.16 0-22.175-16.863-44.336-16.863" stroke="#fff" stroke-width="3" stroke-miterlimit="10"/><path d="M266.539 21.259c-22.175 0-22.175 16.863-44.336 16.863-22.161 0-22.161-16.863-44.335-16.863-22.175 0-22.161 16.863-44.336 16.863-22.175 0-22.161-16.863-44.336-16.863" stroke="#fff" stroke-width="3" stroke-miterlimit="10"/></svg><svg viewBox="0 0 36 36" id="wa-circ" xmlns="http://www.w3.org/2000/svg"><rect width="36" height="36" rx="8"/><path d="M26.972 19.578c.596-5.018-.287-8.186-1.879-9.619h.001c-2.57-2.448-11.247-2.81-14.32.11-1.38 1.427-1.867 3.523-1.92 6.117-.054 2.596-.117 7.457 4.413 8.776h.004l-.004 2.014s-.03.816.49.98c.597.193.867-.186 2.72-2.4 3.101.268 5.483-.348 5.753-.438.626-.21 4.169-.678 4.742-5.54zm-10.189 4.56s-1.962 2.447-2.572 3.083c-.2.206-.42.187-.416-.223 0-.268.015-3.343.015-3.343-3.84-1.101-3.614-5.24-3.573-7.406.042-2.167.438-3.941 1.607-5.136 2.697-2.528 10.305-1.963 12.243-.141 2.37 2.1 1.526 8.035 1.531 8.237-.487 4.058-3.358 4.316-3.886 4.492-.225.074-2.32.613-4.949.437z" fill="#fff"/><path d="M17.87 11.589c-.321 0-.321.5 0 .504 2.486.019 4.534 1.752 4.557 4.932 0 .335.491.331.487-.004-.027-3.426-2.264-5.413-5.045-5.432z" fill="#fff"/><path d="M21.14 16.498c-.007.331.483.347.487.011.041-1.889-1.124-3.445-3.313-3.609-.32-.023-.353.48-.034.504 1.899.144 2.899 1.44 2.86 3.094zM20.616 18.647c-.411-.238-.83-.09-1.003.144l-.362.469c-.184.238-.528.206-.528.206-2.51-.663-3.18-3.29-3.18-3.29s-.031-.355.198-.546l.453-.374c.227-.18.37-.613.14-1.039-.617-1.113-1.03-1.497-1.241-1.791-.222-.278-.555-.34-.901-.153h-.008c-.72.422-1.508 1.21-1.256 2.022.43.856 1.221 3.584 3.742 5.646 1.185.975 3.06 1.974 3.856 2.204l.008.012c.784.262 1.547-.558 1.954-1.3v-.005c.18-.36.12-.699-.143-.921-.468-.457-1.174-.96-1.729-1.284z" fill="#fff"/><path d="M18.657 14.758c.8.047 1.189.465 1.23 1.323.015.336.502.312.487-.023-.053-1.12-.637-1.745-1.69-1.804-.32-.019-.35.485-.027.504z" fill="#fff"/></svg><svg fill="none" viewBox="0 0 61 60" id="whatsapp" xmlns="http://www.w3.org/2000/svg"><path d="M30.54 60c16.568 0 30-13.431 30-30 0-16.569-13.432-30-30-30-16.57 0-30 13.431-30 30 0 16.569 13.43 30 30 30z" fill="#4CAF50"/><path d="M39.059 21.45c-2.28-2.205-5.28-3.45-8.475-3.45-9.17 0-14.928 9.935-10.349 17.838L18.539 42l6.335-1.652c2.76 1.49 5.02 1.359 5.716 1.447 10.633 0 15.926-12.864 8.454-20.307l.015-.039z" fill="#ECEFF1"/><path d="M30.607 39.751h-.022c-3.182 0-5.215-1.508-5.415-1.595l-3.75.975 1.005-3.645-.24-.375a9.869 9.869 0 01-1.515-5.26c0-8.793 10.745-13.19 16.963-6.975 6.203 6.15 1.848 16.875-7.026 16.875z" fill="#4CAF50"/><path d="M36.046 32.307l-.009.075c-.3-.15-1.767-.867-2.04-.966-.613-.227-.44-.036-1.617 1.312-.175.195-.349.21-.646.075-.3-.15-1.263-.465-2.403-1.485-.888-.795-1.484-1.77-1.66-2.07-.293-.506.32-.578.878-1.634.1-.21.05-.375-.025-.524-.075-.15-.672-1.62-.922-2.206-.24-.584-.487-.51-.672-.51-.576-.05-.997-.042-1.368.344-1.614 1.774-1.207 3.604.174 5.55 2.714 3.552 4.16 4.206 6.804 5.114.714.227 1.365.195 1.88.121.574-.09 1.767-.72 2.016-1.426.255-.705.255-1.29.18-1.425-.074-.135-.27-.21-.57-.345z" fill="#FAFAFA"/></svg><svg fill="none" viewBox="0 0 47 47" id="youtube" xmlns="http://www.w3.org/2000/svg"><circle cx="23.539" cy="23.252" r="22.5" stroke="#fff"/><path d="M12.076 29.13c.49 1.738 1.988 2.056 2.088 2.117 2.465.672 16.283.674 18.786 0 1.713-.496 2.028-2.018 2.087-2.118.653-3.475.696-8.006-.03-11.95l.03.196c-.49-1.739-1.987-2.057-2.087-2.118-2.433-.66-16.287-.686-18.786 0-1.714.498-2.029 2.018-2.088 2.118-.698 3.653-.733 7.843 0 11.754zm9.08-2.225V19.61l6.262 3.654-6.262 3.642z" fill="#fff"/></svg><svg fill="none" viewBox="0 0 21 21" id="zero" xmlns="http://www.w3.org/2000/svg"><path d="M16.892 3.877A9 9 0 004.168 16.609M16.892 3.877A9 9 0 114.168 16.609M16.892 3.877L4.168 16.609" stroke="#272B2C" stroke-width="2"/></svg></svg>